<svg width="20" height="20" viewBox="0 0 20 20" fill="none" xmlns="http://www.w3.org/2000/svg">
<circle cx="10" cy="10" r="10" fill="#43BBFF"/>
<path d="M11.25 16H8.98438V7.54688H11.25V16ZM8.85156 5.35938C8.85156 5.02083 8.96354 4.74219 9.1875 4.52344C9.41667 4.30469 9.72656 4.19531 10.1172 4.19531C10.5026 4.19531 10.8099 4.30469 11.0391 4.52344C11.2682 4.74219 11.3828 5.02083 11.3828 5.35938C11.3828 5.70312 11.2656 5.98438 11.0312 6.20312C10.8021 6.42188 10.4974 6.53125 10.1172 6.53125C9.73698 6.53125 9.42969 6.42188 9.19531 6.20312C8.96615 5.98438 8.85156 5.70312 8.85156 5.35938Z" fill="white"/>
</svg>
